<?xml version="1.0" encoding="UTF-8" standalone="no"?><svg xmlns="http://www.w3.org/2000/svg" xmlns:xlink="http://www.w3.org/1999/xlink" contentStyleType="text/css" height="327px" preserveAspectRatio="none" style="width:716px;height:327px;background:#FFFFFF;" version="1.1" viewBox="0 0 716 327" width="716px" zoomAndPan="magnify"><defs/><g><!--MD5=[17e3ac8090b991c32a7bf595ea3c36ed]
cluster mds-core--><g id="cluster_mds-core"><path d="M8.5,116 L84.5,116 A3.75,3.75 0 0 1 87,118.5 L94,138.2969 L706.5,138.2969 A2.5,2.5 0 0 1 709,140.7969 L709,317.5 A2.5,2.5 0 0 1 706.5,320 L8.5,320 A2.5,2.5 0 0 1 6,317.5 L6,118.5 A2.5,2.5 0 0 1 8.5,116 " style="stroke:#000000;stroke-width:1.5;fill:none;"/><line style="stroke:#000000;stroke-width:1.5;fill:none;" x1="6" x2="94" y1="138.2969" y2="138.2969"/><text fill="#000000" font-family="sans-serif" font-size="14" font-weight="bold" lengthAdjust="spacing" textLength="75" x="10" y="130.9951">mds-core</text></g><!--MD5=[65c6dfe2190e67b6ff982efa1f4c1eb7]
entity other components--><g id="elem_other components"><rect fill="#F1F1F1" height="46.2969" rx="2.5" ry="2.5" style="stroke:#181818;stroke-width:0.5;" width="175" x="464.5" y="151"/><rect fill="#F1F1F1" height="10" style="stroke:#181818;stroke-width:0.5;" width="15" x="619.5" y="156"/><rect fill="#F1F1F1" height="2" style="stroke:#181818;stroke-width:0.5;" width="4" x="617.5" y="158"/><rect fill="#F1F1F1" height="2" style="stroke:#181818;stroke-width:0.5;" width="4" x="617.5" y="162"/><text fill="#000000" font-family="sans-serif" font-size="14" lengthAdjust="spacing" textLength="135" x="479.5" y="183.9951">other components</text></g><!--MD5=[61fabd86101481cbed4138d2de21c20f]
entity IFaces--><g id="elem_IFaces"><ellipse cx="684" cy="174" fill="#F1F1F1" rx="8" ry="8" style="stroke:#181818;stroke-width:0.5;"/><text fill="#000000" font-family="sans-serif" font-size="14" lengthAdjust="spacing" textLength="44" x="662" y="203.9951">IFaces</text></g><!--MD5=[31fe7855e401401448dbc0e5a77ebd66]
entity mds_provider--><g id="elem_mds_provider"><rect fill="#F1F1F1" height="46.2969" rx="2.5" ry="2.5" style="stroke:#181818;stroke-width:0.5;" width="138" x="238" y="151"/><rect fill="#F1F1F1" height="10" style="stroke:#181818;stroke-width:0.5;" width="15" x="356" y="156"/><rect fill="#F1F1F1" height="2" style="stroke:#181818;stroke-width:0.5;" width="4" x="354" y="158"/><rect fill="#F1F1F1" height="2" style="stroke:#181818;stroke-width:0.5;" width="4" x="354" y="162"/><text fill="#000000" font-family="sans-serif" font-size="14" lengthAdjust="spacing" textLength="98" x="253" y="183.9951">mds_provider</text></g><!--MD5=[b591d46f6feee31dd6ed56e01e56de5f]
entity ProviderIF--><g id="elem_ProviderIF"><ellipse cx="420" cy="174" fill="#F1F1F1" rx="8" ry="8" style="stroke:#181818;stroke-width:0.5;"/><text fill="#000000" font-family="sans-serif" font-size="14" lengthAdjust="spacing" textLength="72" x="384" y="203.9951">ProviderIF</text></g><!--MD5=[b0b9c83d1f07315c60a99fba7d4369e2]
entity mds_agency--><g id="elem_mds_agency"><rect fill="#F1F1F1" height="46.2969" rx="2.5" ry="2.5" style="stroke:#181818;stroke-width:0.5;" width="128" x="22" y="151"/><rect fill="#F1F1F1" height="10" style="stroke:#181818;stroke-width:0.5;" width="15" x="130" y="156"/><rect fill="#F1F1F1" height="2" style="stroke:#181818;stroke-width:0.5;" width="4" x="128" y="158"/><rect fill="#F1F1F1" height="2" style="stroke:#181818;stroke-width:0.5;" width="4" x="128" y="162"/><text fill="#000000" font-family="sans-serif" font-size="14" lengthAdjust="spacing" textLength="88" x="37" y="183.9951">mds_agency</text></g><!--MD5=[bb5ad04106f516a44c4a85958828398b]
entity AgencyIF--><g id="elem_AgencyIF"><ellipse cx="194" cy="174" fill="#F1F1F1" rx="8" ry="8" style="stroke:#181818;stroke-width:0.5;"/><text fill="#000000" font-family="sans-serif" font-size="14" lengthAdjust="spacing" textLength="65" x="161.5" y="203.9951">AgencyIF</text></g><!--MD5=[e88b9fafaecd34ed8afee551b388689b]
entity postgres_db--><g id="elem_postgres_db"><rect fill="#F1F1F1" height="46.2969" rx="2.5" ry="2.5" style="stroke:#181818;stroke-width:0.5;" width="130" x="22" y="258"/><rect fill="#F1F1F1" height="10" style="stroke:#181818;stroke-width:0.5;" width="15" x="132" y="263"/><rect fill="#F1F1F1" height="2" style="stroke:#181818;stroke-width:0.5;" width="4" x="130" y="265"/><rect fill="#F1F1F1" height="2" style="stroke:#181818;stroke-width:0.5;" width="4" x="130" y="269"/><text fill="#000000" font-family="sans-serif" font-size="14" lengthAdjust="spacing" textLength="90" x="37" y="290.9951">postgres_db</text></g><!--MD5=[8f62a4c6b0a0c08f4faf174dbcb5f314]
entity mds-client--><g id="elem_mds-client"><rect fill="#F1F1F1" height="46.2969" rx="2.5" ry="2.5" style="stroke:#181818;stroke-width:0.5;" width="117" x="135.5" y="7"/><rect fill="#F1F1F1" height="10" style="stroke:#181818;stroke-width:0.5;" width="15" x="232.5" y="12"/><rect fill="#F1F1F1" height="2" style="stroke:#181818;stroke-width:0.5;" width="4" x="230.5" y="14"/><rect fill="#F1F1F1" height="2" style="stroke:#181818;stroke-width:0.5;" width="4" x="230.5" y="18"/><text fill="#000000" font-family="sans-serif" font-size="14" lengthAdjust="spacing" textLength="77" x="150.5" y="39.9951">mds-client</text></g><!--MD5=[2d34405584a251c08516200dc3daad1a]
link other components to IFaces--><g id="link_other components_IFaces"><path d="M639.656,174 C651.435,174 663.214,174 674.993,174 " fill="none" id="other components-IFaces" style="stroke:#181818;stroke-width:1.0;"/></g><!--MD5=[f0faa437624183742ecd8a8a3e9d9774]
link mds_provider to ProviderIF--><g id="link_mds_provider_ProviderIF"><path d="M376.301,174 C387.795,174 399.288,174 410.782,174 " fill="none" id="mds_provider-ProviderIF" style="stroke:#181818;stroke-width:1.0;"/></g><!--MD5=[3dc1e3ce8da0b8a39c1f1ce63cf3dc6f]
link mds_agency to AgencyIF--><g id="link_mds_agency_AgencyIF"><path d="M150.125,174 C161.665,174 173.205,174 184.745,174 " fill="none" id="mds_agency-AgencyIF" style="stroke:#181818;stroke-width:1.0;"/></g><!--MD5=[674594b93ddd1958e2cad025e320da8a]
link mds_agency to postgres_db--><g id="link_mds_agency_postgres_db"><path d="M86.2096,197.011 C86.3792,214.812 86.6168,239.7674 86.7872,257.6559 " fill="none" id="mds_agency-postgres_db" style="stroke:#181818;stroke-width:1.0;"/></g><!--MD5=[eaceb71e408f6ed0a25ae7e5ead307d7]
link mds-client to AgencyIF--><g id="link_mds-client_AgencyIF"><path d="M194,53.188 C194,83.065 194,135.294 194,159.711 " fill="none" id="mds-client-to-AgencyIF" style="stroke:#181818;stroke-width:1.0;stroke-dasharray:7.0,7.0;"/><polygon fill="#181818" points="194,164.752,198,155.752,194,159.752,190,155.752,194,164.752" style="stroke:#181818;stroke-width:1.0;"/><text fill="#000000" font-family="sans-serif" font-size="13" lengthAdjust="spacing" textLength="23" x="195" y="96.0669">use</text></g><!--MD5=[97f6dc1d1b0d7fae5c89bd9219c9b1f1]
@startuml
package "mds-core" {
  [other components] - IFaces
  [mds_provider] - ProviderIF
  [mds_agency] - AgencyIF
  [mds_agency] - - [postgres_db]
}


[mds-client] ..> AgencyIF: use
@enduml

PlantUML version 1.2022.7beta11(Unknown compile time)
(GPL source distribution)
Java Runtime: Java(TM) SE Runtime Environment
JVM: Java HotSpot(TM) 64-Bit Server VM
Default Encoding: UTF-8
Language: en
Country: US
--></g></svg>