<?xml version="1.0" encoding="UTF-8" standalone="no"?><svg xmlns="http://www.w3.org/2000/svg" xmlns:xlink="http://www.w3.org/1999/xlink" contentStyleType="text/css" height="337px" preserveAspectRatio="none" style="width:593px;height:337px;background:#FFFFFF;" version="1.1" viewBox="0 0 593 337" width="593px" zoomAndPan="magnify"><defs/><g><!--MD5=[67038bbab2508872e3e35a8d9e320de0]
cluster mds-provider-services--><g id="cluster_mds-provider-services"><path d="M8.5,116 L188.5,116 A3.75,3.75 0 0 1 191,118.5 L198,138.2969 L583.5,138.2969 A2.5,2.5 0 0 1 586,140.7969 L586,210.5 A2.5,2.5 0 0 1 583.5,213 L8.5,213 A2.5,2.5 0 0 1 6,210.5 L6,118.5 A2.5,2.5 0 0 1 8.5,116 " style="stroke:#000000;stroke-width:1.5;fill:none;"/><line style="stroke:#000000;stroke-width:1.5;fill:none;" x1="6" x2="198" y1="138.2969" y2="138.2969"/><text fill="#000000" font-family="sans-serif" font-size="14" font-weight="bold" lengthAdjust="spacing" textLength="179" x="10" y="130.9951">mds-provider-services</text></g><!--MD5=[41107b089c671ddd56e305be013badaa]
entity some other components--><g id="elem_some other components"><rect fill="#F1F1F1" height="46.2969" rx="2.5" ry="2.5" style="stroke:#181818;stroke-width:0.5;" width="218" x="22" y="151"/><rect fill="#F1F1F1" height="10" style="stroke:#181818;stroke-width:0.5;" width="15" x="220" y="156"/><rect fill="#F1F1F1" height="2" style="stroke:#181818;stroke-width:0.5;" width="4" x="218" y="158"/><rect fill="#F1F1F1" height="2" style="stroke:#181818;stroke-width:0.5;" width="4" x="218" y="162"/><text fill="#000000" font-family="sans-serif" font-size="14" lengthAdjust="spacing" textLength="178" x="37" y="183.9951">some other components</text></g><!--MD5=[4a65e84059005d12693a083370a06717]
entity client--><g id="elem_client"><rect fill="#F1F1F1" height="46.2969" rx="2.5" ry="2.5" style="stroke:#181818;stroke-width:0.5;" width="81" x="435.5" y="151"/><rect fill="#F1F1F1" height="10" style="stroke:#181818;stroke-width:0.5;" width="15" x="496.5" y="156"/><rect fill="#F1F1F1" height="2" style="stroke:#181818;stroke-width:0.5;" width="4" x="494.5" y="158"/><rect fill="#F1F1F1" height="2" style="stroke:#181818;stroke-width:0.5;" width="4" x="494.5" y="162"/><text fill="#000000" font-family="sans-serif" font-size="14" lengthAdjust="spacing" textLength="41" x="450.5" y="183.9951">client</text></g><!--MD5=[854490cbfb8eedee4432d73740ee6d75]
entity View--><g id="elem_View"><ellipse cx="561" cy="174" fill="#F1F1F1" rx="8" ry="8" style="stroke:#181818;stroke-width:0.5;"/><text fill="#000000" font-family="sans-serif" font-size="14" lengthAdjust="spacing" textLength="34" x="544" y="203.9951">View</text></g><!--MD5=[e34c9b94451c880e96ce44817b07a059]
entity fake--><g id="elem_fake"><rect fill="#F1F1F1" height="46.2969" rx="2.5" ry="2.5" style="stroke:#181818;stroke-width:0.5;" width="72" x="275" y="151"/><rect fill="#F1F1F1" height="10" style="stroke:#181818;stroke-width:0.5;" width="15" x="327" y="156"/><rect fill="#F1F1F1" height="2" style="stroke:#181818;stroke-width:0.5;" width="4" x="325" y="158"/><rect fill="#F1F1F1" height="2" style="stroke:#181818;stroke-width:0.5;" width="4" x="325" y="162"/><text fill="#000000" font-family="sans-serif" font-size="14" lengthAdjust="spacing" textLength="32" x="290" y="183.9951">fake</text></g><!--MD5=[23122a9d9502313415c60953b34cd236]
entity GenData--><g id="elem_GenData"><ellipse cx="391" cy="174" fill="#F1F1F1" rx="8" ry="8" style="stroke:#181818;stroke-width:0.5;"/><text fill="#000000" font-family="sans-serif" font-size="14" lengthAdjust="spacing" textLength="63" x="359.5" y="203.9951">GenData</text></g><!--MD5=[c811ed96a9d0f7a8199508da1418e78c]
entity mds-provider--><g id="elem_mds-provider"><rect fill="#F1F1F1" height="46.2969" rx="2.5" ry="2.5" style="stroke:#181818;stroke-width:0.5;" width="137" x="224.5" y="276"/><rect fill="#F1F1F1" height="10" style="stroke:#181818;stroke-width:0.5;" width="15" x="341.5" y="281"/><rect fill="#F1F1F1" height="2" style="stroke:#181818;stroke-width:0.5;" width="4" x="339.5" y="283"/><rect fill="#F1F1F1" height="2" style="stroke:#181818;stroke-width:0.5;" width="4" x="339.5" y="287"/><text fill="#000000" font-family="sans-serif" font-size="14" lengthAdjust="spacing" textLength="97" x="239.5" y="308.9951">mds-provider</text></g><!--MD5=[0d60da3edf519e51da57038f7207c0e4]
entity METHODS--><g id="elem_METHODS"><ellipse cx="406" cy="299" fill="#F1F1F1" rx="8" ry="8" style="stroke:#181818;stroke-width:0.5;"/><text fill="#000000" font-family="sans-serif" font-size="14" lengthAdjust="spacing" textLength="71" x="370.5" y="328.9951">METHODS</text></g><!--MD5=[57ff92c5a762448c0b1dd3a32f95d2ff]
entity genfake-data--><g id="elem_genfake-data"><rect fill="#F1F1F1" height="46.2969" rx="2.5" ry="2.5" style="stroke:#181818;stroke-width:0.5;" width="137" x="322.5" y="7"/><rect fill="#F1F1F1" height="10" style="stroke:#181818;stroke-width:0.5;" width="15" x="439.5" y="12"/><rect fill="#F1F1F1" height="2" style="stroke:#181818;stroke-width:0.5;" width="4" x="437.5" y="14"/><rect fill="#F1F1F1" height="2" style="stroke:#181818;stroke-width:0.5;" width="4" x="437.5" y="18"/><text fill="#000000" font-family="sans-serif" font-size="14" lengthAdjust="spacing" textLength="97" x="337.5" y="39.9951">genfake-data</text></g><!--MD5=[2a4202d30d29eb17f51dd8d9020231f8]
link mds-provider to METHODS--><g id="link_mds-provider_METHODS"><path d="M361.859,299 C373.469,299 385.079,299 396.689,299 " fill="none" id="mds-provider-METHODS" style="stroke:#181818;stroke-width:1.0;"/></g><!--MD5=[9648e64eb36ef0507314d97cf73333c4]
link client to View--><g id="link_client_View"><path d="M516.508,174 C528.326,174 540.144,174 551.963,174 " fill="none" id="client-View" style="stroke:#181818;stroke-width:1.0;"/></g><!--MD5=[a409d5eaa4884c5767432240ba1617a4]
link fake to GenData--><g id="link_fake_GenData"><path d="M347.25,174 C358.757,174 370.264,174 381.771,174 " fill="none" id="fake-GenData" style="stroke:#181818;stroke-width:1.0;"/></g><!--MD5=[606c6527061887b95edad39278fab0ce]
link fake to METHODS--><g id="link_fake_METHODS"><path d="M328.204,197.274 C348.271,223.2563 380.72,265.2691 396.616,285.8506 " fill="none" id="fake-to-METHODS" style="stroke:#181818;stroke-width:1.0;stroke-dasharray:7.0,7.0;"/><polygon fill="#181818" points="399.747,289.9036,397.4112,280.3357,396.6906,285.9465,391.0798,285.226,399.747,289.9036" style="stroke:#181818;stroke-width:1.0;"/><text fill="#000000" font-family="sans-serif" font-size="13" lengthAdjust="spacing" textLength="23" x="365" y="242.0669">use</text></g><!--MD5=[5492f62bd07b08cb7a3b3385966c698f]
link client to METHODS--><g id="link_client_METHODS"><path d="M463.324,197.274 C448.661,223.0389 425.027,264.5671 413.211,285.3294 " fill="none" id="client-to-METHODS" style="stroke:#181818;stroke-width:1.0;stroke-dasharray:7.0,7.0;"/><polygon fill="#181818" points="410.608,289.9036,418.536,284.06,413.0811,285.558,411.5831,280.1031,410.608,289.9036" style="stroke:#181818;stroke-width:1.0;"/><text fill="#000000" font-family="sans-serif" font-size="13" lengthAdjust="spacing" textLength="23" x="446" y="242.0669">use</text></g><!--MD5=[79d242421df0e24775cd56c65a398176]
link genfake-data to GenData--><g id="link_genfake-data_GenData"><path d="M391,53.188 C391,83.065 391,135.294 391,159.711 " fill="none" id="genfake-data-to-GenData" style="stroke:#181818;stroke-width:1.0;stroke-dasharray:7.0,7.0;"/><polygon fill="#181818" points="391,164.752,395,155.752,391,159.752,387,155.752,391,164.752" style="stroke:#181818;stroke-width:1.0;"/><text fill="#000000" font-family="sans-serif" font-size="13" lengthAdjust="spacing" textLength="23" x="392" y="96.0669">use</text></g><!--MD5=[d33fef13d9225894a76892156bd0fdfb]
@startuml
[mds-provider] - METHODS

package "mds-provider-services" {
  [some other components]
  [client] - View
  [fake] - GenData
  [fake] ..> METHODS: use
  [client] ..> METHODS: use
}

[genfake-data] ..> GenData: use
@enduml

PlantUML version 1.2022.7beta11(Unknown compile time)
(GPL source distribution)
Java Runtime: Java(TM) SE Runtime Environment
JVM: Java HotSpot(TM) 64-Bit Server VM
Default Encoding: UTF-8
Language: en
Country: US
--></g></svg>