<?xml version="1.0" encoding="UTF-8" standalone="no"?><svg xmlns="http://www.w3.org/2000/svg" xmlns:xlink="http://www.w3.org/1999/xlink" contentStyleType="text/css" height="386px" preserveAspectRatio="none" style="width:536px;height:386px;background:#FFFFFF;" version="1.1" viewBox="0 0 536 386" width="536px" zoomAndPan="magnify"><defs/><g><rect fill="none" height="135.6641" style="stroke:#000000;stroke-width:1.5;" width="358" x="172" y="155.5625"/><rect fill="none" height="75.3984" style="stroke:#000000;stroke-width:1.5;" width="338" x="182" y="208.8281"/><line style="stroke:#181818;stroke-width:0.5;stroke-dasharray:5.0,5.0;" x1="93" x2="93" y1="67.2969" y2="308.2266"/><line style="stroke:#181818;stroke-width:0.5;stroke-dasharray:5.0,5.0;" x1="238" x2="238" y1="67.2969" y2="308.2266"/><line style="stroke:#181818;stroke-width:0.5;stroke-dasharray:5.0,5.0;" x1="353" x2="353" y1="67.2969" y2="308.2266"/><line style="stroke:#181818;stroke-width:0.5;stroke-dasharray:5.0,5.0;" x1="462" x2="462" y1="67.2969" y2="308.2266"/><rect fill="#E2E2F0" height="30.2969" rx="2.5" ry="2.5" style="stroke:#181818;stroke-width:0.5;" width="177" x="5" y="36"/><text fill="#000000" font-family="sans-serif" font-size="14" lengthAdjust="spacing" textLength="163" x="12" y="55.9951">mds_provider_services</text><rect fill="#E2E2F0" height="30.2969" rx="2.5" ry="2.5" style="stroke:#181818;stroke-width:0.5;" width="177" x="5" y="307.2266"/><text fill="#000000" font-family="sans-serif" font-size="14" lengthAdjust="spacing" textLength="163" x="12" y="327.2217">mds_provider_services</text><rect fill="#E2E2F0" height="30.2969" rx="2.5" ry="2.5" style="stroke:#181818;stroke-width:0.5;" width="92" x="192" y="36"/><text fill="#000000" font-family="sans-serif" font-size="14" lengthAdjust="spacing" textLength="78" x="199" y="55.9951">mds_client</text><rect fill="#E2E2F0" height="30.2969" rx="2.5" ry="2.5" style="stroke:#181818;stroke-width:0.5;" width="92" x="192" y="307.2266"/><text fill="#000000" font-family="sans-serif" font-size="14" lengthAdjust="spacing" textLength="78" x="199" y="327.2217">mds_client</text><rect fill="#E2E2F0" height="30.2969" rx="2.5" ry="2.5" style="stroke:#181818;stroke-width:0.5;" width="102" x="302" y="36"/><text fill="#000000" font-family="sans-serif" font-size="14" lengthAdjust="spacing" textLength="88" x="309" y="55.9951">mds_agency</text><rect fill="#E2E2F0" height="30.2969" rx="2.5" ry="2.5" style="stroke:#181818;stroke-width:0.5;" width="102" x="302" y="307.2266"/><text fill="#000000" font-family="sans-serif" font-size="14" lengthAdjust="spacing" textLength="88" x="309" y="327.2217">mds_agency</text><text fill="#000000" font-family="sans-serif" font-size="14" lengthAdjust="spacing" textLength="90" x="414" y="63.9951">postgres_db</text><path d="M444,15 C444,5 462,5 462,5 C462,5 480,5 480,15 L480,41 C480,51 462,51 462,51 C462,51 444,51 444,41 L444,15 " fill="#E2E2F0" style="stroke:#181818;stroke-width:1.5;"/><path d="M444,15 C444,25 462,25 462,25 C462,25 480,25 480,15 " fill="none" style="stroke:#181818;stroke-width:1.5;"/><text fill="#000000" font-family="sans-serif" font-size="14" lengthAdjust="spacing" textLength="90" x="414" y="320.2217">postgres_db</text><path d="M444,333.5234 C444,323.5234 462,323.5234 462,323.5234 C462,323.5234 480,323.5234 480,333.5234 L480,359.5234 C480,369.5234 462,369.5234 462,369.5234 C462,369.5234 444,369.5234 444,359.5234 L444,333.5234 " fill="#E2E2F0" style="stroke:#181818;stroke-width:1.5;"/><path d="M444,333.5234 C444,343.5234 462,343.5234 462,343.5234 C462,343.5234 480,343.5234 480,333.5234 " fill="none" style="stroke:#181818;stroke-width:1.5;"/><line style="stroke:#181818;stroke-width:1.0;" x1="93.5" x2="135.5" y1="98.4297" y2="98.4297"/><line style="stroke:#181818;stroke-width:1.0;" x1="135.5" x2="135.5" y1="98.4297" y2="111.4297"/><line style="stroke:#181818;stroke-width:1.0;" x1="94.5" x2="135.5" y1="111.4297" y2="111.4297"/><polygon fill="#181818" points="104.5,107.4297,94.5,111.4297,104.5,115.4297,100.5,111.4297" style="stroke:#181818;stroke-width:1.0;"/><text fill="#000000" font-family="sans-serif" font-size="13" lengthAdjust="spacing" textLength="116" x="100.5" y="93.3638">generate JSON file</text><polygon fill="#181818" points="226,136.5625,236,140.5625,226,144.5625,230,140.5625" style="stroke:#181818;stroke-width:1.0;"/><line style="stroke:#181818;stroke-width:1.0;" x1="0" x2="232" y1="140.5625" y2="140.5625"/><text fill="#000000" font-family="sans-serif" font-size="13" lengthAdjust="spacing" textLength="90" x="7" y="135.4966">input JSON file</text><path d="M172,155.5625 L250,155.5625 L250,162.6953 L240,172.6953 L172,172.6953 L172,155.5625 " fill="#EEEEEE" style="stroke:#000000;stroke-width:1.5;"/><rect fill="none" height="135.6641" style="stroke:#000000;stroke-width:1.5;" width="358" x="172" y="155.5625"/><text fill="#000000" font-family="sans-serif" font-size="13" font-weight="bold" lengthAdjust="spacing" textLength="33" x="187" y="168.6294">loop</text><text fill="#000000" font-family="sans-serif" font-size="11" font-weight="bold" lengthAdjust="spacing" textLength="194" x="265" y="167.7729">[through entries in JSON file]</text><polygon fill="#181818" points="341,189.8281,351,193.8281,341,197.8281,345,193.8281" style="stroke:#181818;stroke-width:1.0;"/><line style="stroke:#181818;stroke-width:1.0;" x1="238" x2="347" y1="193.8281" y2="193.8281"/><text fill="#000000" font-family="sans-serif" font-size="13" lengthAdjust="spacing" textLength="83" x="245" y="188.7622">GET Request</text><path d="M182,208.8281 L248,208.8281 L248,215.9609 L238,225.9609 L182,225.9609 L182,208.8281 " fill="#EEEEEE" style="stroke:#000000;stroke-width:1.5;"/><rect fill="none" height="75.3984" style="stroke:#000000;stroke-width:1.5;" width="338" x="182" y="208.8281"/><text fill="#000000" font-family="sans-serif" font-size="13" font-weight="bold" lengthAdjust="spacing" textLength="21" x="197" y="221.895">alt</text><text fill="#000000" font-family="sans-serif" font-size="11" font-weight="bold" lengthAdjust="spacing" textLength="79" x="263" y="221.0386">[status404]</text><polygon fill="#181818" points="341,243.0938,351,247.0938,341,251.0938,345,247.0938" style="stroke:#181818;stroke-width:1.0;"/><line style="stroke:#181818;stroke-width:1.0;" x1="238" x2="347" y1="247.0938" y2="247.0938"/><text fill="#000000" font-family="sans-serif" font-size="13" lengthAdjust="spacing" textLength="91" x="245" y="242.0278">POST Request</text><polygon fill="#181818" points="450,272.2266,460,276.2266,450,280.2266,454,276.2266" style="stroke:#181818;stroke-width:1.0;"/><line style="stroke:#181818;stroke-width:1.0;" x1="353" x2="456" y1="276.2266" y2="276.2266"/><text fill="#000000" font-family="sans-serif" font-size="13" lengthAdjust="spacing" textLength="69" x="360" y="271.1606">write to db</text><!--MD5=[4ba81e5f36e18b5007f8d73629e5cdf8]
@startuml
mds_provider_services -> mds_provider_services: generate JSON file

-> mds_client: input JSON file

loop through entries in JSON file

    mds_client -> mds_agency : GET Request
    
    database postgres_db as DB

    alt status404

        mds_client -> mds_agency: POST Request
        mds_agency -> DB: write to db

    end

end
@enduml

PlantUML version 1.2022.8beta2(Unknown compile time)
(GPL source distribution)
Java Runtime: Java(TM) SE Runtime Environment
JVM: Java HotSpot(TM) 64-Bit Server VM
Default Encoding: UTF-8
Language: en
Country: US
--></g></svg>